<svg width="96" height="96" version="1.1" viewBox="0 0 96 96" xmlns="http://www.w3.org/2000/svg"><g transform="translate(-.38 -928)" stroke="#007de4"><ellipse cx="48.4" cy="976" rx="42.7" ry="39.8" fill="none" stroke-width="10.5"/><path d="m27.5 990 40.5.0938c5.46-.335 8.8-3.48 9.38-10.3-.163-5.46-2.02-8.73-6.79-9.94.342-2.62-.172-4.9-1.09-7.22-2.52-5.48-7.3-8.62-15.3-8.44-5.36-.0386-11.5 1.28-12.2 5.88-3.37.0298-4.03.261-6.15.476-5.38.842-9.47 5.53-9.67 11.4-9.03 2.32-9.64 17.7 1.31 18.1z" fill="#007de4" stroke-width=".0938px"/></g></svg>
