<svg width="96" height="96" version="1.1" viewBox="0 0 25.4 25.4" xmlns="http://www.w3.org/2000/svg"><g><path d="m4.47 16.7s-1.36-.252-2.12-.467c-1.33-.375-2.35-1.24-2.35-1.24s.698.509 2.62.818c.982.158 1.85.207 1.85.207z" fill="#f2ba42"/><path d="m4.36 6.71 9.03 7.96c.516.455 1.01.441 1.51 0l8.95-7.96v12.2c0 .415-.473.706-.723.706h-18c-.291 0-.723-.373-.723-.706z" fill="#44567f"/><path d="m4.63 5.79 8.91 6.88c.473.366.713.374 1.2 0l8.93-6.88z" fill="#44567f"/><path d="m1.58 16.8s6.76 2.8 13.4-.908c.829-.46 2.7-1.63 4.42-2.71 1.43-.903 3.14-1.75 4.41-1.43 3.34.827.187 3.43.187 3.43s.915-.872.711-1.65c-.241-.919-1.32-.905-3.43.317-3.2 1.85-6.88 3.56-9.09 4.04-7.42 1.6-10.7-1.09-10.7-1.09z" fill="#f2ba42"/></g></svg>
