<svg width="96" height="96" version="1.1" viewBox="0 0 25.4 25.4" xmlns="http://www.w3.org/2000/svg"><g><path d="m13.3 24.9s.125-1 .0935-1.5c-.0312-.502-.28-1.5-.28-1.5l5.85-1.63s-.193 1.53-.206 2.27c-.0125.745.131 2.2.131 2.2s-1.98.337-2.92.365c-.932.028-2.67-.196-2.67-.196z" fill="#fbaf9d"/><path d="m6.37 21 1.33 4.19s1.53.199 2.33.168c.795-.0312 2.44-.355 2.44-.355s-.143-.96-.159-1.44c-.0156-.48.0654-1.44.0654-1.44z" fill="#fbaf9d"/><circle cx="12.3" cy="12.7" r="10.5" fill="#fdcdc2"/><circle cx="12.7" cy="15.1" r="3.38" fill="#fbaf9d"/><path d="m5.44 7.87s-1.3-6.59.687-7.64c1.15-.609 2.65.0813 3.48 1.33.847 1.28 2.13 2.03 2.13 2.03z" fill="#fbaf9d"/></g><g><circle cx="14.4" cy="14" r=".687"/><circle cx="11.4" cy="14.4" r=".793"/><circle cx="16.2" cy="7.26" r="1.03"/><circle cx="11.2" cy="6.91" r=".978"/></g><path d="m15.7 4.51s5.06-4.66 7.32-2.91c.982.761.744 3.27-.506 4.68-1.24 1.41-1.4 3.01-1.4 3.01z" fill="#fbaf9d"/></svg>
