<svg width="96" height="96" enable-background="new 0 0 374.82 356.871" version="1.1" viewBox="0 0 96 96" xml:space="preserve" xmlns="http://www.w3.org/2000/svg"><path d="m80.1 74.1c-3.54 3.37-11 3.46-11 3.46l-.162 7.39s10.1-3.71 13.3-7.98z" fill="#b58765"/><path d="m0 45.2v44c0 .588.141 1.18.343 1.69l68.8-.0723c.218-.472.225-1.05.225-1.62l.000256-44z" fill="#f9e82d"/><path d="m44.6 70.1-19.3-.235-25 20.9c.667 1.71 2.32 2.93 4.27 2.93h60.3c1.95 0 3.61-1.22 4.28-2.93z" fill="#edd514" fill-opacity=".995"/><g fill="#3d5263"><path d="m.000512 68.3v20.8c.101 3.1 2.6 4.65 4.6 4.59h60.3c2.56.0132 4.8-2.36 4.49-4.59v-6.29s-55.1 3.22-69.4-14.5z" enable-background="new    " opacity=".1"/><path d="m65.3 48.2-61 .0404c12 42.2 58 30.5 61-.0404z" enable-background="new    " opacity=".1"/></g><path d="m10.2 29.1c-12.2 19 5.09 29 5.09 29z" fill="#3d5263"/><g fill="#b58765"><path d="m18.6 14.9c-8.72-7.19-18-3.1-18-3.1s.931 11.7 7.56 14.6z"/><path d="m51.3 14.4 11 11.4c7.14-4.48 6.67-14 6.67-14s-7.88-3.48-17.7 2.6z"/><path d="m39.4 14.4c-12.6-2.73-32.1 7.14-30.4 19.7 1.41 11 6 25 6 25 18.8-.812 45.8-4.98 45.8-4.98z"/></g><g fill="#fef3df"><path d="m14 18.8c-3.81-4.62-10.8-3.15-10.8-3.15s.159 5.05 6.14 8.91z"/><path d="m66.3 15.7s-6.38-.387-10.3 2.64l4.84 5.74c3.34-1.63 5.46-8.38 5.46-8.38z"/><path d="m14.4 57.3c9.11 15.2 31.9 16.2 39.2-4.05-8.66-15.1-39.3-9.48-39.2 4.05z"/><path d="m22.1 2.3s2.98 8.87 13.2 8.53c9.64-.318 12.4-8.53 12.4-8.53s2.08 1.5 2.07 4.75c-.0067 2.76-2.01 5.99-2.01 5.99l-25.4.339s-2.18-3.4-2.3-5.99c-.0922-2.02 2.04-5.09 2.04-5.09z"/><path d="m88.5 65.1c-11.8.223-11.9 13.3-1.65 13.5 6.62.118 9.13-12.8 9.13-12.8s-5.16 3.9-9.87 2.29c.244-1.81 2.39-2.99 2.39-2.99z"/></g><path d="m56.7 47.9c8.55-16.6-1.86-36-21.6-33.7.26 6.87 1.27 23.2 21.6 33.7z" fill="#87654a"/><g fill="#5a3620"><path d="m66 43.8-.867 4.86 4.25-3.52z"/><path d="m.000256 45.1 5.9 4.69-.947-6.25"/><path d="m22.4 51.6c-1.59 0-2.88 1.29-2.88 2.88s1.29 2.88 2.88 2.88 2.88-1.29 2.88-2.88-1.29-2.88-2.88-2.88z"/><path d="m46.4 51.6c-1.59 0-2.88 1.29-2.88 2.88s1.29 2.88 2.88 2.88 2.88-1.29 2.88-2.88-1.29-2.88-2.88-2.88z"/><circle cx="23.4" cy="32.4" r="3.23"/><circle cx="46.9" cy="32.4" r="3.25"/></g><path d="m12.4 20.3c47.7-24.2 56.7 18.1 44.8 42.2 31.4-37.2-20.4-73.1-44.8-42.2z" fill="#b4b4b4"/><g fill="#fff"><path d="m24.5 32.7c.655 0 1.19-.53 1.19-1.19 0-.654-.53-1.18-1.19-1.18-.655 0-1.19.531-1.19 1.18.000257.655.532 1.19 1.19 1.19z"/><path d="m47.9 32.7c.655 0 1.19-.53 1.19-1.19 0-.654-.531-1.18-1.19-1.18-.655 0-1.19.531-1.19 1.18 0 .655.531 1.19 1.19 1.19z"/><path d="m65 42c-.135-17-13.8-30.8-30.8-30.8-8.51 0-16.6 3.12-21.8 9.03-6.03 6.79-7.92 13.4-7.85 20.5.188 18.1 13.6 31.2 30.8 30.8 17.9-.367 29.7-12.3 29.6-29.5zm-32.1 23c-15.5 0-25.1-12.4-25.1-24.9 0-16.2 12.9-25 24.6-25.1 11.8-.0954 25.2 9.42 25.3 24.9.0719 11.7-10.1 25-24.7 25z"/></g></svg>
