<svg width="96" height="96" enable-background="new 0 0 374.82 356.871" version="1.1" viewBox="0 0 96 96" xml:space="preserve" xmlns="http://www.w3.org/2000/svg"><g stroke-width=".256"><path d="m15.2 50.5-15.2-5.35v44c0 .588.114 1.15.316 1.66 8.23-6.86 25-20.9 25-20.9z" fill="#f9e82d"/><path d="m10.2 29.1c-5.76 8.19-4.73 26.6 5.09 29z" fill="#3d5263"/><path d="m80.1 74.1c-3.47 2.49-6.7 3.71-10.8 3.46l.0156 7.24c4.66-1.92 9.56-4.31 12.9-7.83-.814-1.37-1.28-2.12-2.1-2.88z" fill="#b58765"/><path d="m54.5 53.4-9.93 16.8s16.4 13.8 24.5 20.6c.201-.515.315-1.07.315-1.66.000614-14.5.000256-44 .000256-44z" fill="#f9e82d"/><path d="m44.6 70.1-19.3-.235s-17.6 14.7-25 20.9c.667 1.71 2.33 2.93 4.28 2.93h60.3c1.95 0 3.61-1.22 4.28-2.93-8.99-7.56-24.5-20.6-24.5-20.6z" fill="#edd514" fill-opacity=".995"/><path d="m.000512 68.3v20.8c0 .588.114 1.15.316 1.66.667 1.71 2.33 2.93 4.28 2.93h60.3c1.95 0 3.61-1.22 4.28-2.93.201-.515.315-1.07.315-1.66v-6.3c-23.2 3.41-54.4 1.65-69.5-14.5z" enable-background="new    " fill="#3d5263" opacity=".1"/><path d="m34.7 75.2c13.5.0027 28.5-9.83 30.5-26.7l-61-.03c.177 12 13.9 26.7 30.5 26.7z" enable-background="new    " fill="#3d5263" fill-opacity=".925" opacity=".1"/><path d="m12.6 20c-.0108.0118-.0218.0236-.0325.0356.0108-.012.0218-.0238.0325-.0356z" fill="#f1f2f2"/><path d="m66 43.8-.867 4.86 4.36-3.5z" fill="#5a3620"/><path d="m.000256 45.1 5.9 4.69-.947-6.25" fill="#5a3620"/><path d="m86.1 68c.919-2.34 1.97-2.82 2.39-2.91-11.8.223-11.9 13.3-1.65 13.5 6.62.101 9.13-12.8 9.13-12.8-1.7 2.99-6.76 2.53-9.87 2.29z" fill="#fef3df"/><path d="m18.6 14.9c-8.72-7.19-18-3.1-18-3.1s.931 11.7 7.56 14.6z" fill="#b58765"/><path d="m14 18.8c-3.81-4.62-10.8-3.15-10.8-3.15s.159 5.05 6.14 8.91z" fill="#fef3df"/><path d="m51.3 14.4 11 11.4c7.14-4.48 6.67-14 6.67-14s-9.59-4.07-17.6 2.61z" fill="#b58765"/><path d="m66.3 15.7s-6.38-.387-10.3 2.64l4.84 5.74c4.28-2.53 5.45-8.39 5.45-8.39z" fill="#fef3df"/><path d="m35.6 14.8c-15.9-3.31-26.3 5.14-25.8 17.8.41 10.1 2.28 17.8 4.66 25.1 18.8-.812 45-3.22 45-3.22s-9.7-27.4-23.8-39.6z" fill="#b58765"/><path d="m14.4 57.3c9.11 15.2 31.9 16.2 39.2-4.05-8.66-15.1-39.3-9.48-39.2 4.05z" fill="#fef3df"/><path d="m22.4 51.6c-1.59 0-2.88 1.29-2.88 2.88 0 1.59 1.29 2.88 2.88 2.88 1.59 0 2.88-1.29 2.88-2.88 0-1.59-1.29-2.88-2.88-2.88z" fill="#5a3620"/><path d="m46.4 51.6c-1.59 0-2.88 1.29-2.88 2.88 0 1.59 1.29 2.88 2.88 2.88 1.59 0 2.88-1.29 2.88-2.88 0-1.59-1.29-2.88-2.88-2.88z" fill="#5a3620"/><path d="m56.7 47.9c8.55-16.6-1.86-36-21.6-33.7.26 6.87 1.27 23.2 21.6 33.7z" fill="#87654a"/></g><circle cx="23.4" cy="32.4" r="3.23" fill="#5a3620"/><path d="m24.5 32.7c.655 0 1.19-.53 1.19-1.19 0-.654-.53-1.18-1.19-1.18-.655 0-1.19.531-1.19 1.18.000257.655.532 1.19 1.19 1.19z" fill="#fff" stroke-width=".256"/><circle cx="46.9" cy="32.4" r="3.25" fill="#5a3620"/><path d="m22.1 2.3s2.98 8.87 13.2 8.53c9.64-.316 12.4-8.53 12.4-8.53s2.08 1.5 2.07 4.75c-.0046 2.76-2.01 5.99-2.01 5.99l-25.4.339s-2.23-3.4-2.3-5.99c-.0909-3.57 2.08-5.09 2.08-5.09z" fill="#fef3df"/><g stroke-width=".256"><path d="m47.9 32.7c.655 0 1.19-.53 1.19-1.19 0-.654-.531-1.18-1.19-1.18-.655 0-1.19.531-1.19 1.18 0 .655.531 1.19 1.19 1.19z" fill="#fff"/><path d="m12.4 20.3c40.8-22.7 55.9 21.1 44.8 42.2 5.54-5.57 8.97-13.2 8.97-21.7v-.0033c0-17-13.8-30.8-30.8-30.8-9.53-.0207-17.6 4.32-23 10.3z" fill="#b4b4b4"/><path d="m57.3 62.3c4.78-5.42 7.67-12.5 7.67-20.3 0-17-13.8-30.8-30.8-30.8-8.51 0-16.2 3.45-21.8 9.03-1.18 1.31-2.24 2.73-3.18 4.23-.39.624-.759 1.26-1.1 1.92-1.81 3.42-3 7.21-3.41 11.2-.105 1.04-.159 2.09-.159 3.15 0 .986.0482 1.96.139 2.92.199 2.11.61 4.16 1.21 6.12 2.89 9.41 10.2 16.9 19.5 20.1 3.13 1.07 6.49 1.66 9.99 1.66 3.23 0 6.35-.499 9.28-1.42 4.65-1.47 8.81-4.01 12.2-7.33.137-.134.464-.478.464-.478zm-1.48-14.9c-4.52 12.7-13 17.5-23.5 17.8-7.06.209-13.4-3.04-17.9-7.91-4.13-4.49-6.67-10.5-6.67-17.2 0-3.97.907-7.73 2.52-11.1 4.01-8.3 12.4-14.1 22.1-14 19.1.183 29 16.9 23.5 32.3z" fill="#f8f9ff"/></g></svg>
