<?xml version="1.0" encoding="UTF-8"?>
<svg version="1.1" viewBox="0 0 96 96" xml:space="preserve" xmlns="http://www.w3.org/2000/svg" xmlns:xlink="http://www.w3.org/1999/xlink">
<style type="text/css">
	.st0{fill-rule:evenodd;clip-rule:evenodd;fill:#FFFFFF;}
	.st1{fill-rule:evenodd;clip-rule:evenodd;fill:#F8B71D;}
	.st2{fill-rule:evenodd;clip-rule:evenodd;fill:#407DB8;}
	.st3{fill-rule:evenodd;clip-rule:evenodd;fill:#F9B91A;}
	.st4{fill:#162331;}
	.st5{fill-rule:evenodd;clip-rule:evenodd;fill:#162331;}
	.st6{fill-rule:evenodd;clip-rule:evenodd;fill:#5592C8;}
	.st7{fill-rule:evenodd;clip-rule:evenodd;fill:#88BCE8;}
	.st8{fill:#FFFFFF;}
</style>
<g transform="matrix(.126 0 0 .126 22.5 -.0133)">
		<path transform="matrix(7.93 0 0 7.93 -178 .105)" d="m28.2 88 1.97 3.57h2.51l.0098 2.08c0 1.29 1.05 2.33 2.33 2.33 1.29 0 2.33-1.05 2.33-2.33l-.0098-2.08h8.29l.0098 2.08c-3.4e-5 1.29 1.05 2.33 2.33 2.33s2.33-1.05 2.33-2.33l-.0098-2.08h8.29l.0098 2.08c0 1.29 1.05 2.33 2.33 2.33 1.29 0 2.33-1.05 2.33-2.33l-.0098-2.08h2.36l2.13-3.57z" clip-rule="evenodd" fill="#407db8" stroke-width=".126"/>
	<path class="st3" d="m14.8 525v-327h.1c.6-89.8 72.9-164 166-173 4.9-1.2 8.4-4.4 9.8-6.9 2.7-5.2 5.7-11 7.6-15.7 1.2-2.8 6.3-3.6 7.7.1 1.8 4.8 4.9 10.4 7.6 15.6 1.3 2.5 4.3 5.7 9.7 6.9 93 9.9 165 83.6 166 173h.1v327z" clip-rule="evenodd" fill="#f9b91a"/>
		<defs><path id="a" d="m14.8 525v-327h.1c.6-89.8 72.9-164 166-173 4.9-1.2 8.4-4.4 9.8-6.9 2.7-5.2 5.7-11 7.6-15.7 1.2-2.8 6.3-3.6 7.7.1 1.8 4.8 4.9 10.4 7.6 15.6 1.3 2.5 4.3 5.7 9.7 6.9 93 9.9 165 83.6 166 173h.1v327z"/></defs>
		<clipPath id="b">
			<use width="100%" height="100%" xlink:href="#a"/>
		</clipPath>
		<g class="st4" clip-path="url(#b)">
			<path d="m316 407c-22.6 0-29.5 8.9-29.5 25.3 0 28 43 111 43 111l-63.8-2.34s-24.6-72.4-24.6-101c0-29 9.5-42.5 44.2-49.9-34.6-7.5-44.2-30-44.2-58.9 0-28 20.9-51.4 20.9-89.7 0-16.8-8.7-30.2-29.4-30.2h-19.9v-35.1c52.1-26.7 95.4 20.8 95.4 55.9 0 50.9-21.5 90.2-21.5 118 0 15.9 7 23 29.5 23h15.4v34h-15.5zm-125-196h-18.1c-20.7 0-29.4 13.4-29.4 30.2 0 38.3 20.9 61.7 20.9 89.7 0 29-11.4 51.5-46 58.9 34.6 7.5 46 21 46 49.9 0 28.5-16.2 101-16.2 101l-68.5 2.8s39.3-83.2 39.3-111c0-16.4-5.8-25.3-28.3-25.3h-18.5v-34h18.5c22.6 0 28.3-7.1 28.3-23 0-28-21.5-67.3-21.5-118 0-34.8 42.1-81.6 93.5-56.6v36z" clip-rule="evenodd" fill="#162331"/>
		</g>
	<path class="st6" d="m384 547c-2 5.8-2.8 12.6-3.1 18.3v117.4c0 10.2-8.3 18.5-18.5 18.5h-321c-10.2 0-18.5-8.3-18.5-18.5v-117.4c-0.3-5.6-1.1-12.3-3.1-18.1-4.6-13.2-19.8-18.5-19.8-18.5l1-7.2h402l1 7.2s-15.3 5.2-19.8 18.4z" clip-rule="evenodd" fill="#5592c8"/>
	<path transform="matrix(7.93 0 0 7.93 -178 .105)" d="m25.4 73.7v3.58h15.8c.984 0 1.79-.796 1.79-1.79 0-.984-.807-1.79-1.79-1.79zm29.4 0c-.984 0-1.79.794-1.79 1.79 0 .984.807 1.79 1.79 1.79h15.8v-3.58z" clip-rule="evenodd" fill="#88bce8" stroke-width=".126"/>
</g>
</svg>
