<svg version="1.1" viewBox="0 0 96 96" xmlns="http://www.w3.org/2000/svg"><g transform="translate(.0245 68.1)" stroke-width="1.14"><path d="m87-46.7c-3.27 0-6.27 1.77-7.86 4.63l-16.4 32.3s-2.77 14.5 10.4 15.4c1.64-.815 2.99-2.1 3.89-3.69 6.08-12 18.2-36 18.2-36 2.42-6.83-1.55-12.6-8.22-12.6zm-53.9 16.3s.0416-15.1-10.2-15.3c-1.97 1.23-3.25 2.48-4.2 4.32l-17.9 35.3c-1.96 4.39-.11 9.55 4.2 11.7 4.31 2.14 9.54.512 11.9-3.7z" fill="#ff5100"/><path d="m26.8-42.1c-.897-1.59-2.25-2.88-3.89-3.69 1.27-.659 2.63-.954 3.99-.925h12.2c3.24.009 6.23 1.75 7.84 4.57l22.2 43.9c.907 1.61 2.28 2.91 3.94 3.72-1.24.601-2.59.917-3.96.925h-12.3c-3.24-.0107-6.22-1.75-7.82-4.57z" fill="#ff8c44"/></g></svg>
