<?xml version="1.0" encoding="UTF-8"?>
<svg version="1.1" viewBox="0 0 96 96" xmlns="http://www.w3.org/2000/svg" xmlns:cc="http://creativecommons.org/ns#" xmlns:dc="http://purl.org/dc/elements/1.1/" xmlns:rdf="http://www.w3.org/1999/02/22-rdf-syntax-ns#">
<metadata>
<rdf:RDF>
<cc:Work rdf:about="">
<dc:format>image/svg+xml</dc:format>
<dc:type rdf:resource="http://purl.org/dc/dcmitype/StillImage"/>
<dc:title/>
</cc:Work>
</rdf:RDF>
</metadata>
<g transform="translate(.024454 68.132)" stroke-width="1.1422">
<path d="m87.004-46.742a8.9891 8.9891 0 0 0 -7.8583 4.6259l-0.18275 0.37692-7.0016 13.889-8.9091 17.555 5.8366 11.502 0.31981 0.62821a9.1375 9.1375 0 0 0 3.8949 3.6893 9.1946 9.1946 0 0 0 3.8949 -3.6893l0.31981-0.62821 17.487-34.506 0.42261-0.8338a8.9776 8.9776 0 0 0 -8.2124 -12.564zm-54.049 16.71-5.8252-11.422-0.31981-0.6282a9.0119 9.0119 0 0 0 -3.8835 -3.6779 9.0462 9.0462 0 0 0 -3.8835 3.6664l-0.33124 0.63963-17.51 34.471-0.42261 0.82238a8.9776 8.9776 0 0 0 16.059 7.9953l0.19417-0.3655 7.0473-13.889 8.8977-17.544z" fill="#ff5100"/>
<path d="m32.956-30.032-5.8252-11.422-0.31981-0.6282a9.069 9.069 0 0 0 -3.8949 -3.6893 9.4916 9.4916 0 0 1 1.7019 -0.63963 9.3203 9.3203 0 0 1 2.2844 -0.28555h12.199a9.0462 9.0462 0 0 1 7.8354 4.5688l0.31981 0.62821 15.774 31.25 5.8138 11.422 0.31981 0.6282a9.1375 9.1375 0 0 0 3.9406 3.7235 9.1946 9.1946 0 0 1 -3.9634 0.92518h-12.267a9.0347 9.0347 0 0 1 -7.824 -4.5688l-0.33124-0.62821z" fill="#ff8c44"/>
</g>
</svg>
