<svg width="96" height="96" version="1.1" viewBox="0 0 25.4 25.4" xmlns="http://www.w3.org/2000/svg"><path d="m0 3.71.467.423c.193.175.84-.0649 1.11-.179.541-.229 2.67-1.74 10.6-1.89 7.91-.154 12.9 3.57 12.9 3.57l.32-.352s-4.2-4.77-13.1-4.74-12.3 3.17-12.3 3.17z" fill="#29b257"/><path d="m11.4 4.89c-2.55.0103-4.69.477-4.69.477v18.9s.639.471 1.8.471c1.16 0 1.8-.471 1.8-.471v-7.11s9.4 1.63 9.4-6.49c0-4.82-4.58-5.78-8.3-5.77zm4.65 6.08c0 4.16-5.68 3.33-5.68 3.33v-6.35s5.68-1.14 5.68 3.02z" fill="#fff" fill-rule="evenodd" stroke="#303f49" stroke-opacity=".985" stroke-width=".265"/></svg>
