<svg width="96" height="96" version="1.1" viewBox="0 0 96 96" xmlns="http://www.w3.org/2000/svg"><rect width="96" height="96" fill="#a8cf56"/><path d="m72.5 82.3c-6.66-6.67.0589-17.2 9.07-14.2 6.37 2.1 7.82 10.7 2.5 14.9-3.59 2.83-8.37 2.56-11.6-.65z" fill="#e28444" stroke-width=".997"/><path d="m36.4 9.98c-12-.0921-23.6 3-24.7 2.89l8.2 73c1.08 1.15 7.95 1.67 16.4-.268l-2.52-26.3c2.64-1.22 36.6-.0693 29.7-33.1-2.69-12.8-15.1-16.1-27-16.2zm1.4 13.5c4.82-.0321 9.49 1.44 9.96 9.49.67 11.4-11.3 12.2-15.4 12.9l-2.48-21.8c2.13 0 5.08-.559 7.97-.578z" fill="#fff"/></svg>
