<svg width="96" height="96" version="1.1" viewBox="0 0 96 96" xmlns="http://www.w3.org/2000/svg"><g stroke-width=".997"><path d="m.143 48v-47.8h95.7v95.7h-95.7z" fill="#fdfdfd"/><path d="m.143 48v-47.8h95.7v95.7h-95.7zm35.7 37.4c.152-.142-.398-6.02-1.22-13.1-.823-7.04-1.34-12.9-1.16-13.1.188-.188 3.2-.784 6.7-1.32 8.73-1.35 16.5-5.46 20.2-10.6 5.29-7.52 4.81-21.2-1.01-29-5.28-7.07-13.4-8.91-31.7-7.19-7.3.684-13.8 1.55-14.4 1.92-.778.481.0682 10.8 2.91 35.5 2.21 19.1 4.01 35.6 4.01 36.7 0 1.74.564 1.83 7.72 1.17 4.25-.393 7.85-.832 8-.974zm-3.85-39.5c-.644-2.82-2.51-21.5-2.21-22.1.229-.411 3.06-.748 6.28-.748 7.95 0 11 2.53 11.7 9.63.564 5.87-.658 8.7-4.65 10.8-2.74 1.41-10.9 3.19-11.1 2.41z" fill="#e6f1d0"/><path d="m.143 48v-47.8h95.7v95.7h-95.7zm35.7 37.4c.428-.428-1.43-20-2.29-24.1-.398-1.9.231-2.21 6.6-3.26 16.4-2.72 23.8-10.3 23.8-24.5 0-10.2-3.46-16.6-11.2-20.6-5.61-2.88-11.3-3.28-26.7-1.88-12.2 1.12-13.9 1.49-13.9 3.05 0 .974 1.79 17.5 3.99 36.7 2.19 19.2 3.99 35.2 3.99 35.6 0 .713 15-.279 15.7-1.04zm-4.05-42.1c-.313-1.57-.887-6.76-1.28-11.5l-.706-8.7h5.06c2.78 0 6.19.429 7.56.954 4.7 1.79 7.02 9.78 4.46 15.4-1.25 2.75-5.41 5.06-10.9 6.08-3.37.623-3.63.483-4.17-2.18z" fill="#d5e8af"/><path d="m.143 48v-47.8h95.7v95.7h-95.7zm32.3 38.2 3.87-.639-.629-6.58c-.346-3.62-.912-9.55-1.26-13.2l-.628-6.6 4.87-.684c9.18-1.29 14.5-3.63 19.4-8.55 3.85-3.85 4.9-5.7 5.87-10.4 1.21-5.83.36-13.1-2.09-17.9-2.24-4.37-7.31-8.64-12.2-10.3-5.02-1.67-17.8-1.57-32.3.243-4.85.606-5.23.85-5.23 3.32 0 2.43 6.13 57.5 7.51 67.6.583 4.22.602 4.24 4.76 4.23 2.3-.006 5.92-.299 8.04-.65zm-.379-41.3c0-.592-.504-5.35-1.12-10.6-1.27-10.8-1.05-11.2 5.41-11.3 7.39-.0298 11.7 4.37 11.7 12 0 4.42-4.25 8.58-10 9.82-6.12 1.31-5.91 1.31-5.91-.0017z" fill="#c8e196"/><path d="m.143 48v-47.8h95.7v95.7h-95.7zm33.6 38.3 2.91-.583-1.25-10.6c-1.99-16.9-2.47-15.5 5.69-16.9 12.6-2.17 19.8-7.6 22.6-17.1 1.32-4.53 1.42-6.62.534-11.8-2.05-12.1-8.96-18.1-21.8-18.9-7.52-.483-29.4 1.38-30.4 2.59-.404.478 7.1 69.6 8.01 73.7.109.496 10.8.235 13.7-.334zm-2.59-50.9c-.651-5.79-.897-10.8-.546-11.2.351-.351 3.03-.638 5.96-.638 6.49 0 9.99 2.72 11 8.53 1.17 6.95-3.09 11.6-12.1 13.2l-3.11.559z" fill="#bedb81"/><path d="m1.39 94.4c-1.96-2.23-1.79-90.8.178-92.8 2.12-2.12 90.7-2.12 92.8 0 2.12 2.12 2.12 90.7 0 92.9-2.12 2.12-91.2 2.05-93-.067zm34.9-8.48c.243-.272-.148-5.43-.87-11.5-1.97-16.4-2.35-15.1 4.5-15.9 17.6-1.99 27.5-14.5 24.2-30.4-2.65-12.7-10.2-18-25.6-18-7.14-.0055-26.3 1.65-27.1 2.33-.258.24 7.62 69.7 8.2 72.3.505 2.26.813 2.33 8.37 1.99 4.32-.196 8.05-.579 8.29-.851zm-5.13-50.9c-.64-5.63-.946-10.5-.681-10.7.266-.266 2.93-.518 5.93-.562 6.4-.0925 9.06 1.74 10.5 7.26 2.01 7.46-1.96 12.8-10.2 13.8l-4.45.501z" fill="#b2d56a"/><path d="m1.14 92.9c-.997-.644-1.08-.971-.249-.982 1.82-.0225 1.82-87.7 0-87.8-.831-.0102-.748-.337.249-.982.909-.588 19.3-.966 46.8-.966s45.9.379 46.8.966c.997.644 1.08.971.249.982-1.82.0223-1.82 87.7 0 87.8.831.01.748.337-.249.982-.909.588-19.3.966-46.8.966s-45.9-.379-46.8-.966zm34.6-6.75c.88-.56.815-3.72-.264-13-.784-6.75-1.17-12.7-.854-13.2.315-.509 1.85-.926 3.41-.926 4.51 0 14.7-3.55 18.5-6.44 5.66-4.32 7.9-9.68 7.92-19 .0145-6.68-.388-8.7-2.47-12.4-5.78-10.3-14.4-12.8-36.2-10.5-7.64.805-14 1.6-14.2 1.77-.356.356 7.52 71.4 8.12 73.2.444 1.38 14 1.78 16.1.476zm-4.07-48.3c-.369-3.97-.925-8.69-1.24-10.5l-.566-3.24h6.14c5.19 0 6.52.379 8.58 2.45 3.54 3.55 3.51 11.6-.0595 14.9-1.38 1.28-3.9 2.6-5.61 2.94-6.46 1.29-6.52 1.23-7.25-6.61z" fill="#a8cf56"/><path d="m72.5 82.3c-6.66-6.67.0589-17.2 9.07-14.2 6.37 2.1 7.82 10.7 2.5 14.9-3.59 2.83-8.37 2.56-11.6-.65z" fill="#e28444"/></g></svg>
