<svg width="96" height="96" version="1.1" viewBox="0 0 96 96" xmlns="http://www.w3.org/2000/svg"><g stroke="#ccc" stroke-linejoin="bevel" stroke-width=".312"><path d="m13.8 38.2 13.6 4.95 13.8-5.02-13.6-4.95z" fill="#f7f7f4"/><path d="m13.8 38.2 13.6 4.95v16l-13.6-4.95z" fill="#efeeea"/><path d="m27.5 27 13.6 4.95 13.8-5.02-13.6-4.95z" fill="#f7f7f4"/><path d="m27.5 27 13.6 4.95v16l-13.6-4.95z" fill="#efeeea"/><path d="m.156 59.3 13.6 4.95 13.8-5.02-13.6-4.95z" fill="#f7f7f4"/><path d="m.156 59.3 13.6 4.95v16l-13.6-4.95z" fill="#efeeea"/><path d="m13.8 64.3 13.6 4.95v16l-13.6-4.95z" fill="#efeeea"/><path d="m13.8 48.1 13.6 4.95 13.8-5.02-13.6-4.95z" fill="#f7f7f4"/><path d="m13.8 48.1 13.6 4.95v16l-13.6-4.95z" fill="#efeeea"/><path d="m82 59.3v16l13.8-5.02v-16z" fill="#fff"/><path d="m68.4 64.2v16l13.8-5.02v-16z" fill="#ffd242"/><path d="m54.7 69.2v16l13.8-5.02v-16z" fill="#ffd242"/><path d="m41.1 74.2v16l13.8-5.02v-16z" fill="#fff"/><path d="m27.5 69.2 13.6 4.95v16l-13.6-4.95z" fill="#efeeea"/><path d="m82 43.1v16l13.8-5.02v-16z" fill="#ffd242"/><path d="m68.4 22 13.6 4.95 13.8-5.02-13.6-4.95z" fill="#ffc91d"/><path d="m82 27v16l13.8-5.02v-16z" fill="#ffd242"/><path d="m68.4 48.1v16l13.8-5.02v-16z" fill="#ffd242"/><path d="m68.4 32v16l13.8-5.02v-16z" fill="#3775a9"/><path d="m54.8 10.9 13.6 4.95 13.8-5.02-13.6-4.95z" fill="#2f6491"/><path d="m68.4 15.8v16l13.8-5.02v-16z" fill="#3775a9"/><path d="m54.7 53.1v16l13.8-5.02v-16z" fill="#ffd242"/><path d="m54.7 36.9v16l13.8-5.02v-16z" fill="#3775a9"/><path d="m41.1 58v16l13.8-5.02v-16z" fill="#3775a9"/><path d="m27.5 53.1 13.6 4.95v16l-13.6-4.95z" fill="#2f6491"/><path d="m27.5 36.9 13.6 4.95 13.8-5.02-13.6-4.95z" fill="#2f6491"/><path d="m41.1 41.9v16l13.8-5.02v-16z" fill="#3775a9"/><path d="m27.5 36.9 13.6 4.95v16l-13.6-4.95z" fill="#2f6491"/><path d="m54.7 20.8v16l13.8-5.02v-16z" fill="#3775a9"/><path d="m41.1 15.8 13.6 4.95v16l-13.6-4.95z" fill="#2f6491"/><path d="m41.1 15.8 13.6 4.95 13.8-5.02-13.6-4.95z" fill="#2f6491"/></g><ellipse transform="matrix(.94 -.342 0 1 0 0)" cx="82" cy="97.1" rx="2.82" ry="2.82" fill="#fff" stroke-width=".951"/><ellipse transform="matrix(.94 -.342 0 1 0 0)" cx="63.7" cy="48.7" rx="2.82" ry="2.82" fill="#fff" stroke-width=".951"/></svg>
