<svg width="96" height="96" version="1.1" viewBox="0 0 25.4 25.4" xmlns="http://www.w3.org/2000/svg"><g transform="translate(-93.8 -63.1)" stroke-width=".112px"><g fill="#404042" stroke="#404042"><path d="m99.3 67.8c-.113.0019-.122-.0575-.124-.121l.0034-1.91c-.0038-.123-.0134-.251.121-.227h14.7c.178-.0158.241.0727.23.227l.003 2.7c-.002.126-.0602.119-.117.117l-1.01-.234c-.0714-.039-.091-.078-.117-.117l.0106-1.35c.0146-.11-.0479-.118-.117-.117l-12.4.0142c-.112.0011-.115.0569-.117.113l.007.787c.003.0694-.0242.112-.106.106z"/><path d="m96.6 68.4c-.0542 2e-4-.113-.0103-.115.106l-.0017 1.91c-.003.0726.0289.113.106.11h1.01c.115.0069.122-.0506.121-.113v-.681c-.0034-.0901.0503-.109.117-.11l11.2.0106 2.36-1.24z"/><path d="m93.8 71.2c.0061-.0628.0251-.115.115-.113l13.7.005c.0765-.006.121.0219.108.11l-.441 1.01-12.1-.005c-.106.0017-.106.0611-.11.118v12.4c-.004.0752.0232.125.123.115l12.3.108c.0643.017.134.0502.269.112l.962.006c.102-.0094.132.0399.13.115l-.008.784c.003.0784-.041.109-.123.103l-14.8.0075c-.0972 1.8e-5-.116-.0496-.11-.115z"/><path d="m99.2 76 .01.461-1.02-.0301.642.782-.471.321-.491-.872-.501.882-.431-.301.591-.792-1.02.01-.01-.471 1.01.01-.662-.762.541-.371.471.902.531-.882.491.351-.712.762z"/></g><path d="m113 68.8c-2.39-.0373-4.86 2.16-4.86 4.26l.0101 2.6c-.781.16-1.14.679-1.35 1.33l-.0143 6.22c-.007.288.806 1.18 1.36 1.19l9.67.0142c.905-.175 1.25-.737 1.47-1.39l-.0143-5.9c-.184-.819-.663-1.34-1.49-1.5l.0199-2.44c-.0258-3.19-3.06-4.34-4.8-4.39zm.05 1.05c2.1.0193 3.78 2.07 3.76 3.33l-.01 2.47h-7.53l.0101-2.49c.005-1.23 1.58-3.29 3.77-3.31zm-.0156 7.96c.481.0055 1.04.373 1.06.993-.0106.393-.258.714-.459.909l.353 2.78-1.91.0072.353-2.82c-.364-.186-.467-.499-.467-.858.009-.669.568-1.02 1.07-1.01z" fill="#2b5db2" stroke="#2a5db0"/><g fill="#404042" stroke="#404042"><path d="m102 76 .01.461-1.02-.0301.642.782-.471.321-.491-.872-.501.882-.431-.301.591-.792-1.02.01-.01-.471 1.01.01-.662-.762.541-.371.471.902.531-.882.491.351-.712.762z"/><path d="m105 76 .01.461-1.02-.0301.642.782-.471.321-.491-.872-.501.882-.431-.301.591-.792-1.02.01-.01-.471 1.01.01-.662-.762.541-.371.471.902.531-.882.491.351-.712.762z"/><path d="m105 80.9.01.461-1.02-.0301.642.782-.471.321-.491-.872-.501.882-.431-.301.591-.792-1.02.01-.01-.471 1.01.01-.662-.762.541-.371.471.902.531-.882.491.351-.712.762z"/><path d="m102 80.9.01.461-1.02-.0301.642.782-.471.321-.491-.872-.501.882-.431-.301.591-.792-1.02.01-.01-.471 1.01.01-.662-.762.541-.371.471.902.531-.882.491.351-.712.762z"/><path d="m99.2 80.9.01.461-1.02-.0301.642.782-.471.321-.491-.872-.501.882-.431-.301.591-.792-1.02.01-.01-.471 1.01.01-.662-.762.541-.371.471.902.531-.882.491.351-.712.762z"/></g></g></svg>
