<svg width="96" height="96" version="1.1" viewBox="0 0 96 96" xmlns="http://www.w3.org/2000/svg"><path d="m70.8 80.1v-12.4l6.86 6.22c-2.03 2.33-4.34 4.42-6.86 6.22zm-28.7 6.86 20.1-19v16.8c-4.41 1.71-9.2 2.65-14.2 2.65-2.01 0-3.99-.152-5.92-.444zm-33.3-34.8 21.1 19 21.3-20 11-10.4v15.3l-29.8 28.1c-12.8-5.52-22.1-17.6-23.6-32.1zm16.7-36.5.0134 12.5-7.01-6.29c2.08-2.34 4.42-4.43 7-6.22zm.0425 39.9-16.3-14.7c.778-4.27 2.25-8.3 4.28-12l12 10.8zm28.4-46.5-19.8 18.8-.017-16.7c4.31-1.62 8.97-2.51 13.8-2.51 2.04 0 4.05.157 6.02.459zm32.8 45.9c-.749 4.19-2.16 8.16-4.13 11.8l-11.8-10.7v-15.5zm.369-11.3-20.7-18.8-21.1 20-11.1 10.4-.0163-15.6 16.9-16 12.6-11.9c12.7 5.51 21.9 17.5 23.5 31.8zm-5.2-29.6c-9.07-9.07-21.1-14.1-33.9-14.1-12.8 0-24.9 4.99-33.9 14.1-9.07 9.07-14.1 21.1-14.1 33.9 0 12.8 4.99 24.9 14.1 33.9 9.07 9.07 21.1 14.1 33.9 14.1 12.8 0 24.9-4.99 33.9-14.1 9.07-9.07 14.1-21.1 14.1-33.9 0-12.8-4.99-24.9-14.1-33.9z" fill="#03c736" fill-rule="evenodd" stroke-width=".708"/></svg>
